<?xml version="1.0" encoding="UTF-8" standalone="no"?>
<!-- Created with Inkscape (http://www.inkscape.org/) -->

<svg
   width="10mm"
   height="10mm"
   viewBox="0 0 10 10"
   version="1.1"
   id="svg1"
   inkscape:export-filename="pattern.svg"
   inkscape:export-xdpi="96"
   inkscape:export-ydpi="96"
   xmlns:inkscape="http://www.inkscape.org/namespaces/inkscape"
   xmlns:sodipodi="http://sodipodi.sourceforge.net/DTD/sodipodi-0.dtd"
   xmlns="http://www.w3.org/2000/svg"
   xmlns:svg="http://www.w3.org/2000/svg">
  <sodipodi:namedview
     id="namedview1"
     pagecolor="#ffffff"
     bordercolor="#000000"
     borderopacity="0.25"
     inkscape:showpageshadow="2"
     inkscape:pageopacity="0.0"
     inkscape:pagecheckerboard="0"
     inkscape:deskcolor="#d1d1d1"
     inkscape:document-units="mm"
     showguides="true"
     inkscape:zoom="16.871996"
     inkscape:cx="17.010435"
     inkscape:cy="16.743721"
     inkscape:window-width="1920"
     inkscape:window-height="1051"
     inkscape:window-x="-9"
     inkscape:window-y="-9"
     inkscape:window-maximized="1"
     inkscape:current-layer="layer1" />
  <defs
     id="defs1" />
  <g
     inkscape:label="Layer 1"
     inkscape:groupmode="layer"
     id="layer1"
     transform="translate(-76.290321,-77.532257)">
    <rect
       style="fill:#141414;fill-opacity:1;stroke-width:0.0117531;paint-order:stroke fill markers"
       id="rect1"
       width="10"
       height="10"
       x="76.290321"
       y="77.532257"
       ry="0.012173686" />
    <circle
       style="fill:#ffea5e;fill-opacity:1;stroke-width:0.0134153;paint-order:stroke fill markers"
       id="circle15"
       cx="77.950211"
       cy="79.014717"
       r="1" />
    <circle
       style="fill:#ffea5e;fill-opacity:1;stroke-width:0.0134153;paint-order:stroke fill markers"
       id="circle20"
       cx="80.25544"
       cy="82.339264"
       r="1" />
    <circle
       style="fill:#ffea5e;fill-opacity:1;stroke-width:0.00670765;paint-order:stroke fill markers"
       id="circle21"
       cx="78.249985"
       cy="83.109482"
       r="0.5" />
    <circle
       style="fill:#ffea5e;fill-opacity:1;stroke-width:0.00670765;paint-order:stroke fill markers"
       id="circle22"
       cx="79.75544"
       cy="80.365166"
       r="0.5" />
    <circle
       style="fill:#ffea5e;fill-opacity:1;stroke-width:0.0100615;paint-order:stroke fill markers"
       id="circle23"
       cx="83.50248"
       cy="78.592224"
       r="0.75" />
    <circle
       style="fill:#ffea5e;fill-opacity:1;stroke-width:0.0134153;paint-order:stroke fill markers"
       id="circle24"
       cx="83.234985"
       cy="81.17881"
       r="1" />
    <circle
       style="fill:#ffea5e;fill-opacity:1;stroke-width:0.0134153;paint-order:stroke fill markers"
       id="circle25"
       cx="80.992485"
       cy="85.412895"
       r="1" />
    <circle
       style="fill:#ffea5e;fill-opacity:1;stroke-width:0.0134153;paint-order:stroke fill markers"
       id="circle26"
       cx="77.981583"
       cy="86.306755"
       r="1" />
    <circle
       style="fill:#ffea5e;fill-opacity:1;stroke-width:0.00134153;paint-order:stroke fill markers"
       id="circle27"
       cx="78.947716"
       cy="84.638344"
       r="0.1" />
    <circle
       style="fill:#ffea5e;fill-opacity:1;stroke-width:0.0134153;paint-order:stroke fill markers"
       id="circle29"
       cx="84.61499"
       cy="84.268112"
       r="1" />
    <circle
       style="fill:#ffea5e;fill-opacity:1;stroke-width:0.00134153;paint-order:stroke fill markers"
       id="circle30"
       cx="77.191353"
       cy="81.031532"
       r="0.1" />
    <circle
       style="fill:#ffea5e;fill-opacity:1;stroke-width:0.00134153;paint-order:stroke fill markers"
       id="circle31"
       cx="79.653389"
       cy="78.036301"
       r="0.1" />
    <circle
       style="fill:#ffea5e;fill-opacity:1;stroke-width:0.00134153;paint-order:stroke fill markers"
       id="circle32"
       cx="85.675201"
       cy="77.910843"
       r="0.1" />
    <circle
       style="fill:#ffea5e;fill-opacity:1;stroke-width:0.00134153;paint-order:stroke fill markers"
       id="circle33"
       cx="81.895889"
       cy="79.541748"
       r="0.1" />
    <circle
       style="fill:#ffea5e;fill-opacity:1;stroke-width:0.00134153;paint-order:stroke fill markers"
       id="circle34"
       cx="85.361565"
       cy="80.796295"
       r="0.1" />
    <circle
       style="fill:#ffea5e;fill-opacity:1;stroke-width:0.00134153;paint-order:stroke fill markers"
       id="circle35"
       cx="85.800652"
       cy="83.211296"
       r="0.1" />
    <circle
       style="fill:#ffea5e;fill-opacity:1;stroke-width:0.00134153;paint-order:stroke fill markers"
       id="circle36"
       cx="85.800652"
       cy="83.211296"
       r="0.1" />
    <circle
       style="fill:#ffea5e;fill-opacity:1;stroke-width:0.00134153;paint-order:stroke fill markers"
       id="circle37"
       cx="83.385651"
       cy="86.410385"
       r="0.1" />
    <path
       sodipodi:type="star"
       style="fill:#ffea5e;fill-opacity:1;stroke-width:0.113;paint-order:stroke fill markers"
       id="path38"
       inkscape:flatsided="false"
       sodipodi:sides="5"
       sodipodi:cx="18.847799"
       sodipodi:cy="9.6609793"
       sodipodi:r1="2.5458436"
       sodipodi:r2="1.272922"
       sodipodi:arg1="1.7818897"
       sodipodi:arg2="2.4102082"
       inkscape:rounded="0.05"
       inkscape:randomized="-3.469447e-18"
       d="m 18.314371,12.150311 c -0.08265,-0.01771 -0.357487,-1.576235 -0.413944,-1.639146 -0.05646,-0.06291 -1.576265,-0.504179 -1.584962,-0.5882604 -0.0087,-0.084082 1.388619,-0.8270732 1.431006,-0.9002086 0.04239,-0.073135 -0.0076,-1.6549161 0.06969,-1.68917 0.07728,-0.034254 1.215701,1.0650755 1.298355,1.082787 0.08265,0.017712 1.571573,-0.518616 1.628031,-0.4557043 0.05646,0.062912 -0.637275,1.4853261 -0.628579,1.5694078 0.0087,0.084082 0.978876,1.3343935 0.93649,1.4075295 -0.04239,0.07314 -1.609557,-0.147094 -1.686837,-0.11284 -0.07728,0.03425 -0.966594,1.343317 -1.049248,1.325605 z"
       transform="matrix(0.21113168,0,0,0.20756588,77.162407,77.950351)"
       inkscape:transform-center-x="-0.05581027"
       inkscape:transform-center-y="0.080352967" />
    <path
       sodipodi:type="star"
       style="fill:#ffea5e;fill-opacity:1;stroke-width:0.113;paint-order:stroke fill markers"
       id="path39"
       inkscape:flatsided="false"
       sodipodi:sides="5"
       sodipodi:cx="7.0531073"
       sodipodi:cy="12.861549"
       sodipodi:r1="2.0820498"
       sodipodi:r2="0.79266453"
       sodipodi:arg1="1.485291"
       sodipodi:arg2="2.1136096"
       inkscape:rounded="0.05"
       inkscape:randomized="-3.469447e-18"
       d="m 7.2309168,14.935993 c -0.075435,0.0065 -0.5224292,-1.356609 -0.587258,-1.395718 -0.064829,-0.03911 -1.4790582,0.201164 -1.5085183,0.13142 -0.02946,-0.06974 1.1287721,-0.916075 1.1459334,-0.989816 0.017161,-0.07374 -0.6483724,-1.344505 -0.5911448,-1.394076 0.057228,-0.04957 1.2200487,0.790444 1.2954837,0.783978 0.075435,-0.0065 1.0783421,-1.032114 1.1431708,-0.993005 0.064829,0.03911 -0.3747405,1.404595 -0.3452804,1.47434 0.02946,0.06975 1.3148244,0.706624 1.2976631,0.780365 -0.017161,0.07374 -1.4516511,0.07764 -1.5088787,0.127215 -0.057228,0.04957 -0.2657358,1.468831 -0.3411708,1.475297 z"
       transform="matrix(0.25338595,0,0,0.25917944,76.347815,77.59212)"
       inkscape:transform-center-x="-0.013873853"
       inkscape:transform-center-y="0.03765931" />
    <path
       sodipodi:type="star"
       style="fill:#ffea5e;fill-opacity:1;stroke-width:0.113;paint-order:stroke fill markers"
       id="path40"
       inkscape:flatsided="false"
       sodipodi:sides="5"
       sodipodi:cx="11.676152"
       sodipodi:cy="23.411575"
       sodipodi:r1="1.8910692"
       sodipodi:r2="0.71995562"
       sodipodi:arg1="0.56192156"
       sodipodi:arg2="1.1902401"
       inkscape:rounded="0.05"
       inkscape:randomized="-3.469447e-18"
       d="m 13.276437,24.419162 c -0.03664,0.05819 -1.26902,-0.364681 -1.332867,-0.339138 -0.06385,0.02554 -0.664508,1.181738 -0.731174,1.164874 -0.06667,-0.01686 -0.04532,-1.319602 -0.08934,-1.372431 -0.04402,-0.05283 -1.3292435,-0.266807 -1.333806,-0.335423 -0.00456,-0.06862 1.241012,-0.450878 1.277652,-0.509071 0.03664,-0.05819 -0.15701,-1.346634 -0.09316,-1.372176 0.06385,-0.02554 0.812305,1.040944 0.878972,1.057808 0.06667,0.01686 1.232206,-0.565459 1.276228,-0.51263 0.04402,0.05283 -0.73898,1.094217 -0.734418,1.162833 0.0046,0.06862 0.918556,0.997161 0.881916,1.055354 z"
       transform="matrix(0.14333743,0,0,0.13928602,77.477226,80.245613)"
       inkscape:transform-center-x="0.020465621"
       inkscape:transform-center-y="0.0053811019" />
    <path
       sodipodi:type="star"
       style="fill:#ffea5e;fill-opacity:1;stroke-width:0.113;paint-order:stroke fill markers"
       id="path41"
       inkscape:flatsided="false"
       sodipodi:sides="5"
       sodipodi:cx="23.530113"
       sodipodi:cy="25.308208"
       sodipodi:r1="1.8297004"
       sodipodi:r2="0.69659168"
       sodipodi:arg1="0.43467022"
       sodipodi:arg2="1.0629887"
       inkscape:rounded="0.05"
       inkscape:randomized="-3.469447e-18"
       d="m 25.189668,26.078716 c -0.02802,0.06035 -1.262689,-0.19417 -1.320828,-0.161817 -0.05814,0.03235 -0.49264,1.215738 -0.558692,1.20774 -0.06605,-0.008 -0.205526,-1.260891 -0.254262,-1.306187 -0.04874,-0.0453 -1.30847,-0.09284 -1.321274,-0.158135 -0.0128,-0.06529 1.135668,-0.585103 1.163686,-0.645451 0.02802,-0.06035 -0.316039,-1.273119 -0.2579,-1.305473 0.05814,-0.03235 0.907406,0.899277 0.973459,0.907276 0.06605,0.008 1.113147,-0.693987 1.161883,-0.648691 0.04874,0.0453 -0.574859,1.140887 -0.562055,1.206178 0.0128,0.06529 1.004002,0.844212 0.975983,0.90456 z"
       transform="matrix(0.26458333,0,0,0.26458333,76.478503,78.300665)"
       inkscape:transform-center-x="0.017921915"
       inkscape:transform-center-y="0.028684846" />
    <path
       sodipodi:type="star"
       style="fill:#ffea5e;fill-opacity:1;stroke-width:0.113;paint-order:stroke fill markers"
       id="path42"
       inkscape:flatsided="false"
       sodipodi:sides="5"
       sodipodi:cx="21.574211"
       sodipodi:cy="18.314371"
       sodipodi:r1="2.7577982"
       sodipodi:r2="1.049931"
       sodipodi:arg1="0.49248577"
       sodipodi:arg2="1.1208043"
       inkscape:rounded="0.05"
       inkscape:randomized="-3.469447e-18"
       d="m 24.004273,19.618307 c -0.04742,0.08837 -1.883084,-0.402144 -1.973386,-0.358525 -0.0903,0.04362 -0.847168,1.786443 -0.945862,1.768654 -0.09869,-0.01779 -0.199443,-1.915189 -0.268832,-1.987592 -0.06939,-0.0724 -1.960798,-0.253664 -1.974378,-0.353024 -0.01358,-0.09936 1.759822,-0.781508 1.807239,-0.869875 0.04742,-0.08837 -0.364671,-1.943215 -0.27437,-1.986835 0.0903,-0.04362 1.287073,1.432191 1.385767,1.44998 0.09869,0.01779 1.735418,-0.947309 1.804807,-0.874907 0.06939,0.0724 -0.964367,1.66665 -0.950787,1.766011 0.01358,0.09936 1.437219,1.357746 1.389802,1.446113 z"
       transform="matrix(0.1936598,0,0,0.19236654,77.76778,79.051823)"
       inkscape:transform-center-x="0.029170117"
       inkscape:transform-center-y="0.022120688" />
    <path
       sodipodi:type="star"
       style="fill:#ffea5e;fill-opacity:1;stroke-width:0.113;paint-order:stroke fill markers"
       id="path43"
       inkscape:flatsided="false"
       sodipodi:sides="5"
       sodipodi:cx="33.665253"
       sodipodi:cy="18.788528"
       sodipodi:r1="2.9096587"
       sodipodi:r2="1.1077462"
       sodipodi:arg1="1.6319445"
       sodipodi:arg2="2.260263"
       inkscape:rounded="0.05"
       inkscape:randomized="-3.469447e-18"
       d="m 33.487443,21.692749 c -0.105609,-0.0065 -0.445217,-1.982193 -0.526856,-2.0495 -0.08164,-0.06731 -2.085873,-0.02394 -2.112358,-0.126374 -0.02649,-0.102438 1.747598,-1.035958 1.786382,-1.1344 0.03878,-0.09844 -0.621806,-1.99118 -0.532565,-2.048024 0.08924,-0.05685 1.525292,1.341936 1.630901,1.348402 0.105609,0.0065 1.701576,-1.206681 1.783215,-1.139375 0.08164,0.06731 -0.804916,1.865321 -0.77843,1.967759 0.02649,0.102438 1.673437,1.24541 1.634652,1.343852 -0.03878,0.09844 -2.022757,-0.189105 -2.111997,-0.13226 -0.08924,0.05684 -0.667335,1.976386 -0.772944,1.96992 z"
       transform="matrix(0.18099142,0,0,0.18656712,78.712141,78.477159)"
       inkscape:transform-center-x="0.0099104376"
       inkscape:transform-center-y="0.041834664" />
    <path
       sodipodi:type="star"
       style="fill:#ffea5e;fill-opacity:1;stroke-width:0.113;paint-order:stroke fill markers"
       id="path44"
       inkscape:flatsided="false"
       sodipodi:sides="5"
       sodipodi:cx="33.546711"
       sodipodi:cy="6.6974883"
       sodipodi:r1="2.5486019"
       sodipodi:r2="0.97028697"
       sodipodi:arg1="1.5707963"
       sodipodi:arg2="2.1991149"
       inkscape:rounded="0.05"
       inkscape:randomized="-3.469447e-18"
       d="m 33.546711,9.2460902 c -0.09268,0 -0.495343,-1.7091489 -0.57032,-1.7636233 -0.07498,-0.054474 -1.824906,0.090724 -1.853544,0.00258 -0.02864,-0.088141 1.472427,-0.9992552 1.501066,-1.0873966 0.02864,-0.088141 -0.65021,-1.7075526 -0.575233,-1.762027 0.07498,-0.054474 1.405354,1.0915752 1.498031,1.0915752 0.09268,0 1.423053,-1.1460496 1.498031,-1.0915753 0.07498,0.054474 -0.603872,1.6738858 -0.575233,1.7620272 0.02864,0.088141 1.529705,0.999255 1.501066,1.0873963 -0.02864,0.088141 -1.778566,-0.057057 -1.853544,-0.00258 -0.07498,0.054474 -0.477643,1.7636232 -0.57032,1.7636232 z"
       transform="matrix(-0.20624774,0,0,-0.21680939,91.757085,81.015232)"
       inkscape:transform-center-y="-0.052560359" />
  </g>
</svg>
